<svg xmlns="http://www.w3.org/2000/svg" width="800" height="800" viewBox="0 0 800 800"><defs><pattern id="grid" width="40" height="40" patternUnits="userSpaceOnUse"><path d="M40 0H0V40" stroke="#c9d6e0" fill="none" stroke-width=".6"/></pattern><pattern id="windows" width="68" height="85" patternUnits="userSpaceOnUse"><path d="M18 15h32v48H18z" fill="#718fa5"/><path d="M34 15v48" stroke="#afc2d0"/></pattern></defs><path fill="#e8eef3" d="M0 0h800v800H0z"/><path fill="url(#grid)" d="M0 0h800v800H0z"/><circle cx="400" cy="365" r="240" fill="none" stroke="#bdcedd"/><path d="m180 290 285-125 166 97-285 126z" fill="#dae4ec" stroke="#91aabb"/><path d="m180 290 166 98v244l-166-99z" fill="#afc3d2"/><path d="m346 388 285-126v244L346 632z" fill="#cbd9e4"/><path d="M0 0h240v230H0z" fill="url(#windows)" transform="matrix(1 -.44 0 1 368 389)"/><path d="m209 348 36 21v48l-36-21zm68 40 36 21v48l-36-21zm-68 45 36 21v48l-36-21zm68 40 36 21v48l-36-21z" fill="#7594ab"/><path d="M460 292v-24h24m68 0h24v24m0 70v24h-24m-68 0h-24v-24" fill="none" stroke="#1765ef" stroke-width="2"/><path d="M518 326h171" stroke="#1765ef"/><circle cx="518" cy="326" r="5" fill="#1765ef"/><text x="35" y="44" fill="#648098" font-family="Arial" font-size="9" letter-spacing="3">PROSPECTDRONE / OBSERVATION DU BÂTIMENT</text><text x="615" y="315" fill="#1765ef" font-family="Arial" font-size="9" letter-spacing="2">FAÇADE</text></svg>
